# xmcd
#
# Track frame offsets:
#	150
#	20422
#	35577
#	56810
#	76857
#	97825
#	117767
#	137982
#	156170
#	176230
#
# Disc length: 2583 seconds
#
# Revision: 0
# Processed by: cddbd v1.4PL0 Copyright (c) Steve Scherf et al.
# Submitted via: dBpowerAMP V4.0
#
DISCID=7e0a150a
DTITLE=Errol Ranville - I Wanna Fly
DYEAR=2000
DGENRE=Country
TTITLE0=I Wanna Fly
TTITLE1=Still Th e One
TTITLE2=Weve Got Heanen
TTITLE3=Spend The Night With Me
TTITLE4=On My Way Back Home
TTITLE5=Janine
TTITLE6=Oh Cocaine
TTITLE7=It Ain't Enough
TTITLE8=Old Rodeo Cowboys
TTITLE9=In Search of America
EXTD=
EXTT0=
EXTT1=
EXTT2=
EXTT3=
EXTT4=
EXTT5=
EXTT6=
EXTT7=
EXTT8=
EXTT9=
PLAYORDER=
